<?xml version="1.0" encoding="UTF-8"?>
<svg width="413px" height="142px" viewBox="0 0 413 142" version="1.1" xmlns="http://www.w3.org/2000/svg" xmlns:xlink="http://www.w3.org/1999/xlink">
    <!-- Generator: Sketch 58 (84663) - https://sketch.com -->
    <title>General Services Administration | Technology Transformation Services</title>
    <desc>GSA | TTS logos</desc>
    <g id="Page-1" stroke="none" stroke-width="1" fill="none" fill-rule="evenodd">
        <g id="Dark" transform="translate(-83.000000, -98.000000)">
            <g id="Group-2" transform="translate(83.000000, 99.000000)">
                <g id="Group">
                    <text id="Technology-Transform" font-family="SourceSansPro-Bold, Source Sans Pro" font-size="32" font-weight="bold" fill="#202020">
                        <tspan x="195" y="41">Technology</tspan>
                        <tspan x="195" y="81">Transformation</tspan>
                        <tspan x="195" y="121">Services</tspan>
                    </text>
                    <path d="M164.5,0 L164.5,140" id="Line" stroke="#202020" stroke-width="2" stroke-linecap="square"></path>
                    <g id="GSA" transform="translate(0.000000, 10.000000)" fill="#202020">
                        <path d="M119.083019,0.000905660377 L119.083019,119.194868 L-1.13686838e-13,119.194868 L-1.13686838e-13,0.000905660377 L119.083019,0.000905660377 Z M23.076566,61.2295472 C13.4075094,63.0861509 8.52373585,71.8042642 8.52373585,79.9699245 C8.52373585,86.0695472 9.73166038,91.871434 16.6905283,96.6170943 C23.0627136,100.963029 32.559243,100.901271 39.9182658,98.8061337 L40.3248679,98.6876604 L40.2988302,78.6091698 L26.8509057,78.6091698 L26.7909057,84.5140755 L33.7576981,84.4993585 L33.7984528,94.0461509 C33.7984528,94.0461509 25.7222264,94.9223774 22.2603396,93.1121887 C16.9792075,90.3499245 14.7988302,85.3257736 14.9120377,79.9699245 C15.0161887,74.9457736 16.5388302,70.8352075 21.2969434,68.0344528 C26.5361887,64.9533279 34.5608571,65.9511696 39.2476564,68.810463 L39.5143019,68.9774717 L39.7248679,62.6955849 C35.4309057,61.0201132 29.4252453,60.0103019 23.076566,61.2295472 Z M83.624717,81.0671321 L75.2688679,99.8652453 L81.5349057,99.8652453 L97.4088679,92.136566 L92.9190566,88.5852453 L84.7737736,92.7637358 L88.1145283,85.1403396 L83.624717,81.0671321 Z M102.401887,80.952566 L97.9811321,85.2669057 L104.148679,99.8650189 L110.937736,99.8650189 L102.401887,80.952566 Z M56.0156604,61.4063774 C52.920566,62.5101509 50.3337736,65.2078868 49.5945283,68.2678868 C46.515283,81.0218491 63.2281132,80.7569434 65.339434,86.915434 C65.5160377,88.9373208 65.1990566,90.9297736 63.9333962,92.1048679 C60.3093614,95.471312 54.1480666,93.9265792 50.6752915,92.1229268 L50.4741509,92.016566 L49.8583019,98.2622264 C55.7518868,100.374679 63.1556604,100.663358 68.2432075,96.6795849 C70.0103774,94.9124151 72.0175472,92.1105283 71.8488679,88.4109057 C71.3224528,76.8875094 61.6454717,78.2946792 56.1922642,72.3139245 C55.455283,70.3588302 56.0235849,67.7810943 57.6888679,66.860717 C61.0296226,65.0120377 66.0435849,66.0693962 69.5632075,67.8286415 C69.4749057,67.566 70.4020755,61.9101509 70.4020755,61.9101509 C66.2020755,60.5822264 60.3277358,59.4150566 56.0156604,61.4063774 Z M93.1536226,60.696 L84.0426792,80.7541132 L90.5170189,80.7541132 L93.3743774,74.2933585 L96.0517358,80.7541132 L102.317774,80.7541132 L93.1536226,60.696 Z" id="Combined-Shape"></path>
                        <g id="Copyright" transform="translate(124.380226, 0.000000)">
                            <path d="M4.01366038,4.01230189 L3.11592453,4.01230189 L3.11592453,2.64475472 L3.95479245,2.64475472 C4.80611321,2.64475472 5.11856604,2.81683019 5.11856604,3.32286792 C5.11856604,3.80513208 4.77101887,4.01230189 4.01366038,4.01230189 M4.60007547,4.53984906 C5.36988679,4.48324528 5.89856604,3.95683019 5.89856604,3.21871698 C5.89856604,2.7930566 5.58950943,2.34475472 5.18422642,2.17381132 C4.86271698,2.04701887 4.64422642,2.02324528 3.9434717,2.02324528 L2.38007547,2.02324528 L2.38007547,6.57645283 L3.11592453,6.57645283 L3.11592453,4.644 L3.55290566,4.644 C4.11554717,4.644 4.32271698,4.83871698 4.90913208,5.86324528 L5.31101887,6.57645283 L6.20875472,6.57645283 L5.65743396,5.68890566 C5.19667925,4.95532075 4.94309434,4.67909434 4.60007547,4.53984906" id="Fill-9"></path>
                            <path d="M4.24188679,7.77283019 C2.28792453,7.77283019 0.703018868,6.18566038 0.703018868,4.23056604 C0.703018868,2.28792453 2.28792453,0.700754717 4.24188679,0.700754717 C6.18566038,0.700754717 7.77283019,2.28792453 7.77283019,4.23056604 C7.77283019,6.18566038 6.18566038,7.77283019 4.24188679,7.77283019 M4.24188679,7.10542736e-15 C1.89849057,7.10542736e-15 -4.97379915e-14,1.89735849 -4.97379915e-14,4.23056604 C-4.97379915e-14,6.57622642 1.89849057,8.47358491 4.24188679,8.47358491 C6.57735849,8.47358491 8.47358491,6.57622642 8.47358491,4.23056604 C8.47358491,1.89735849 6.57735849,7.10542736e-15 4.24188679,7.10542736e-15" id="Fill-11"></path>
                        </g>
                    </g>
                </g>
            </g>
        </g>
    </g>
</svg>